<svg width="32" height="32" viewBox="0 0 32 32" fill="none" xmlns="http://www.w3.org/2000/svg">
<path d="M26 2H30V6H26V2Z" fill="#2C70DA"/>
<path d="M26 8H30V12H26V8Z" fill="#2C70DA"/>
<path d="M20 2H24V6H20V2Z" fill="#2C70DA"/>
<path d="M20 8H24V12H20V8Z" fill="#2C70DA"/>
<path d="M28.4614 15.6924V21.6924H4.46143V5.69238H16.4614V3.69238H4.46143C3.93099 3.69238 3.42228 3.9031 3.04721 4.27817C2.67214 4.65324 2.46143 5.16195 2.46143 5.69238V21.6924C2.46143 22.2228 2.67214 22.7315 3.04721 23.1066C3.42228 23.4817 3.93099 23.6924 4.46143 23.6924H12.4614V27.6924H8.46143V29.6924H24.4614V27.6924H20.4614V23.6924H28.4614C28.9919 23.6924 29.5006 23.4817 29.8756 23.1066C30.2507 22.7315 30.4614 22.2228 30.4614 21.6924V15.6924H28.4614ZM18.4614 27.6924H14.4614V23.6924H18.4614V27.6924Z" fill="#2C70DA"/>
</svg>
