<svg width="25" height="24" viewBox="0 0 25 24" fill="none" xmlns="http://www.w3.org/2000/svg">
<path d="M23.3735 0H1.2935C0.762496 0 0.333496 0.429 0.333496 0.96V23.04C0.333496 23.571 0.762496 24 1.2935 24H23.3735C23.9045 24 24.3335 23.571 24.3335 23.04V0.96C24.3335 0.429 23.9045 0 23.3735 0ZM20.6015 7.005H18.6845C17.1815 7.005 16.8905 7.719 16.8905 8.769V11.082H20.4785L20.0105 14.703H16.8905V24H13.1495V14.706H10.0205V11.082H13.1495V8.412C13.1495 5.313 15.0425 3.624 17.8085 3.624C19.1345 3.624 20.2715 3.723 20.6045 3.768V7.005H20.6015Z" fill="#FF7700"/>
</svg>
