<svg width="240" height="240" viewBox="0 0 240 240" fill="none" xmlns="http://www.w3.org/2000/svg">
<rect width="240" height="240" fill="#EDF0F3"/>
<path d="M80.3068 150L85.6477 134.602H108.375L113.688 150H123.006L102.068 91.8182H91.9261L70.9886 150H80.3068ZM88.2045 127.216L96.7841 102.386H97.2386L105.818 127.216H88.2045ZM143.425 150.966C150.641 150.966 154.703 147.301 156.322 144.034H156.663V150H164.959V121.023C164.959 108.324 154.959 105.795 148.027 105.795C140.129 105.795 132.857 108.977 130.016 116.932L137.999 118.75C139.249 115.653 142.43 112.67 148.141 112.67C153.624 112.67 156.436 115.54 156.436 120.483V120.682C156.436 123.778 153.254 123.722 145.413 124.631C137.146 125.597 128.68 127.756 128.68 137.67C128.68 146.25 135.129 150.966 143.425 150.966ZM145.271 144.148C140.47 144.148 137.004 141.989 137.004 137.784C137.004 133.239 141.038 131.619 145.953 130.966C148.709 130.597 155.243 129.858 156.464 128.636V134.261C156.464 139.432 152.345 144.148 145.271 144.148Z" fill="#0E0F11"/>
</svg>
