<svg width="29" height="28" viewBox="0 0 29 28" fill="none" xmlns="http://www.w3.org/2000/svg">
<path d="M0.5 4.375C0.5 3.21468 0.960936 2.10188 1.78141 1.28141C2.60188 0.460936 3.71468 0 4.875 0H24.125C25.2853 0 26.3981 0.460936 27.2186 1.28141C28.0391 2.10188 28.5 3.21468 28.5 4.375V23.625C28.5 24.7853 28.0391 25.8981 27.2186 26.7186C26.3981 27.5391 25.2853 28 24.125 28H4.875C3.71468 28 2.60188 27.5391 1.78141 26.7186C0.960936 25.8981 0.5 24.7853 0.5 23.625V4.375ZM4.875 1.75C4.17881 1.75 3.51113 2.02656 3.01884 2.51884C2.52656 3.01113 2.25 3.67881 2.25 4.375V23.625C2.25 24.3212 2.52656 24.9889 3.01884 25.4812C3.51113 25.9734 4.17881 26.25 4.875 26.25H24.125C24.8212 26.25 25.4889 25.9734 25.9812 25.4812C26.4734 24.9889 26.75 24.3212 26.75 23.625V4.375C26.75 3.67881 26.4734 3.01113 25.9812 2.51884C25.4889 2.02656 24.8212 1.75 24.125 1.75H4.875Z" fill="#831CA6"/>
<path d="M16.25 17.5C16.25 17.0359 16.4344 16.5908 16.7626 16.2626C17.0908 15.9344 17.5359 15.75 18 15.75H21.5C21.9641 15.75 22.4092 15.9344 22.7374 16.2626C23.0656 16.5908 23.25 17.0359 23.25 17.5V21C23.25 21.4641 23.0656 21.9092 22.7374 22.2374C22.4092 22.5656 21.9641 22.75 21.5 22.75H18C17.5359 22.75 17.0908 22.5656 16.7626 22.2374C16.4344 21.9092 16.25 21.4641 16.25 21V17.5Z" fill="#831CA6"/>
<path d="M16.25 7C16.25 6.53587 16.4344 6.09075 16.7626 5.76256C17.0908 5.43437 17.5359 5.25 18 5.25H21.5C21.9641 5.25 22.4092 5.43437 22.7374 5.76256C23.0656 6.09075 23.25 6.53587 23.25 7V10.5C23.25 10.9641 23.0656 11.4092 22.7374 11.7374C22.4092 12.0656 21.9641 12.25 21.5 12.25H18C17.5359 12.25 17.0908 12.0656 16.7626 11.7374C16.4344 11.4092 16.25 10.9641 16.25 10.5V7Z" fill="#831CA6"/>
<path d="M5.75 17.5C5.75 17.0359 5.93437 16.5908 6.26256 16.2626C6.59075 15.9344 7.03587 15.75 7.5 15.75H11C11.4641 15.75 11.9092 15.9344 12.2374 16.2626C12.5656 16.5908 12.75 17.0359 12.75 17.5V21C12.75 21.4641 12.5656 21.9092 12.2374 22.2374C11.9092 22.5656 11.4641 22.75 11 22.75H7.5C7.03587 22.75 6.59075 22.5656 6.26256 22.2374C5.93437 21.9092 5.75 21.4641 5.75 21V17.5Z" fill="#831CA6"/>
<path d="M5.75 7C5.75 6.53587 5.93437 6.09075 6.26256 5.76256C6.59075 5.43437 7.03587 5.25 7.5 5.25H11C11.4641 5.25 11.9092 5.43437 12.2374 5.76256C12.5656 6.09075 12.75 6.53587 12.75 7V10.5C12.75 10.9641 12.5656 11.4092 12.2374 11.7374C11.9092 12.0656 11.4641 12.25 11 12.25H7.5C7.03587 12.25 6.59075 12.0656 6.26256 11.7374C5.93437 11.4092 5.75 10.9641 5.75 10.5V7Z" fill="#831CA6"/>
</svg>
