<?xml version="1.0" encoding="utf-8"?>
<!-- Generator: Adobe Illustrator 25.4.1, SVG Export Plug-In . SVG Version: 6.00 Build 0)  -->
<svg version="1.1" id="Logo_fake" xmlns="http://www.w3.org/2000/svg" xmlns:xlink="http://www.w3.org/1999/xlink" x="0px" y="0px"
	 viewBox="0 0 129.8 100.8" style="enable-background:new 0 0 129.8 100.8;" xml:space="preserve">
<style type="text/css">
	.st0{fill:#F1FDFD;}
</style>
<path id="Path_1" class="st0" d="M0,43.5h7.5v13.3l7.9-13.3h10l-8.9,13.3l9.3,21.9h-9.3l-5.1-14.5l-3.9,5.9v8.6H0V43.5z M27.9,50.5
	h6v21.2h9.4v6.9H27.9V50.5z M46,50.5h16.2v6H52.1V61h9.4v5.7h-9.4v5.5h10.4v6.4H46L46,50.5z M64.7,69.4l5.7-0.5
	c0.1,1.1,0.3,2.1,0.8,3.1c0.5,1,1.5,1.7,2.7,1.7c0.8,0,1.5-0.3,2-0.9c0.5-0.6,0.7-1.3,0.7-2c0-0.7-0.2-1.4-0.7-2
	C75,68,74,67.4,72.8,67.1c-2.2-0.6-4.1-1.8-5.7-3.4c-1.2-1.6-1.8-3.5-1.7-5.4c0-1.4,0.3-2.8,0.9-4.1c0.6-1.3,1.5-2.3,2.6-3
	c1.5-0.8,3.1-1.2,4.8-1.1c2.1-0.1,4.2,0.6,5.7,2c1.3,1.3,2.1,3.5,2.3,6.4l-5.7,0.5c0-1-0.4-2-1-2.8c-0.5-0.6-1.2-0.9-2-0.9
	c-0.6,0-1.2,0.2-1.6,0.6c-0.4,0.4-0.5,1-0.5,1.6c0,0.4,0.2,0.9,0.4,1.2c0.6,0.5,1.3,0.9,2,1c2,0.5,3.9,1.4,5.7,2.5
	c1.1,0.8,2,1.9,2.5,3.1c0.5,1.3,0.8,2.7,0.8,4.2c0,1.7-0.3,3.4-1,5c-0.6,1.4-1.6,2.6-2.9,3.5c-1.4,0.8-3.1,1.2-4.7,1.2
	c-3.3,0-5.6-0.9-6.9-2.8C65.5,74.3,64.8,71.9,64.7,69.4z M85.4,50.5h16.2v6H91.5V61h9.4v5.7h-9.4v5.5h10.4v6.4H85.4V50.5z
	 M105.8,78.7V43.5h12.6c1.8-0.1,3.6,0.2,5.3,0.9c1.3,0.7,2.4,1.8,3,3.2c0.8,1.8,1.2,3.7,1.1,5.7c0,1.7-0.3,3.4-0.9,5.1
	c-0.5,1.3-1.3,2.5-2.4,3.4c-0.8,0.6-1.7,1.1-2.6,1.4c0.7,0.3,1.4,0.8,2,1.3c0.5,0.6,0.9,1.2,1.2,1.8c0.4,0.7,0.8,1.4,1.1,2.2
	l3.7,10.2h-8.5l-4-10.8c-0.3-1-0.8-1.9-1.4-2.7c-0.5-0.5-1.1-0.8-1.8-0.8h-0.7v14.3L105.8,78.7z M113.3,57.7h3.2
	c0.7-0.1,1.4-0.2,2-0.5c0.5-0.2,1-0.6,1.2-1.1c0.3-0.6,0.5-1.3,0.5-2c0.1-0.9-0.2-1.9-0.7-2.6c-0.8-0.7-1.8-1-2.8-0.9h-3.3
	L113.3,57.7z"/>
<path id="Path_7" class="st0" d="M0,84.4h7.3c1-0.1,2,0.3,2.8,0.9c0.6,0.6,1,1.4,1,2.3c0,0.7-0.2,1.4-0.7,1.9
	c-0.4,0.4-0.8,0.7-1.4,0.8c0.8,0.1,1.5,0.5,2,1.1c0.4,0.6,0.7,1.3,0.6,2c0,0.6-0.1,1.2-0.5,1.8c-0.3,0.5-0.7,0.9-1.3,1.2
	c-0.5,0.2-1,0.4-1.5,0.4c-0.6,0.1-1.2,0.1-1.8,0.2H0V84.4z M4,89.4h1.7c0.4,0,0.9-0.1,1.3-0.3c0.2-0.2,0.4-0.6,0.4-0.9
	c0-0.3-0.1-0.6-0.4-0.9C6.6,87,6.1,86.9,5.7,87H4V89.4z M4,94.4h2c0.5,0,1-0.1,1.4-0.4c0.3-0.2,0.4-0.6,0.4-1c0-0.3-0.1-0.7-0.4-0.9
	C7,91.9,6.5,91.8,6,91.8H4V94.4z M23.8,93.4h-7.1c0,0.5,0.2,0.9,0.5,1.3c0.3,0.4,0.8,0.6,1.3,0.6c0.3,0,0.7-0.1,1-0.3
	c0.2-0.2,0.4-0.4,0.6-0.6l3.5,0.3c-0.4,0.8-1.1,1.5-1.9,2c-1,0.5-2.1,0.7-3.2,0.6c-1,0-2-0.1-2.9-0.5c-0.7-0.4-1.3-0.9-1.7-1.6
	c-0.5-0.8-0.7-1.7-0.7-2.6c-0.1-1.3,0.4-2.6,1.4-3.5c1-0.9,2.4-1.4,3.8-1.3c1.1,0,2.1,0.2,3.1,0.6c0.7,0.4,1.4,1,1.7,1.7
	c0.4,0.9,0.6,1.9,0.6,3L23.8,93.4z M20.2,91.7c0-0.5-0.2-1.1-0.5-1.5c-0.3-0.3-0.7-0.5-1.2-0.4c-0.5,0-1,0.2-1.3,0.7
	c-0.2,0.4-0.4,0.8-0.4,1.2H20.2z M35.1,84.4v12.7h-3.3v-1.4c-0.3,0.5-0.8,0.9-1.3,1.2c-0.5,0.3-1.1,0.4-1.7,0.4
	c-1.1,0.1-2.2-0.5-2.9-1.4c-0.7-1-1-2.2-1-3.5c-0.1-1.3,0.3-2.5,1.1-3.5c0.7-0.8,1.7-1.2,2.8-1.2c0.5,0,1,0.1,1.5,0.3
	c0.5,0.2,0.9,0.5,1.2,0.8v-4.4L35.1,84.4z M31.5,92.5c0-0.6-0.1-1.1-0.5-1.6c-0.3-0.3-0.7-0.5-1.2-0.5c-0.4,0-0.8,0.2-1,0.5
	c-0.3,0.5-0.5,1.1-0.4,1.7c0,0.6,0.1,1.2,0.4,1.6c0.3,0.3,0.6,0.5,1.1,0.5c0.4,0,0.9-0.2,1.1-0.5C31.4,93.7,31.6,93.1,31.5,92.5
	L31.5,92.5z M40.4,90.9l-3.4-0.4c0.1-0.5,0.3-1,0.5-1.4c0.3-0.4,0.6-0.7,1-0.9c0.4-0.2,0.9-0.4,1.3-0.4c0.6-0.1,1.2-0.2,1.8-0.1
	c0.9,0,1.7,0,2.5,0.2c0.6,0.1,1.1,0.4,1.6,0.7c0.3,0.3,0.6,0.7,0.7,1.1c0.2,0.4,0.3,0.9,0.3,1.4v4.1c0,0.3,0,0.7,0.1,1
	c0.1,0.3,0.2,0.6,0.4,0.9h-3.3c-0.1-0.2-0.2-0.4-0.3-0.5c-0.1-0.2-0.1-0.4-0.1-0.6c-0.4,0.4-0.9,0.7-1.4,1c-0.7,0.3-1.4,0.4-2.2,0.4
	c-0.9,0.1-1.8-0.2-2.5-0.8c-0.6-0.5-0.9-1.2-0.9-1.9c0-0.6,0.2-1.2,0.6-1.7c0.6-0.6,1.4-0.9,2.3-1c1.3-0.3,2.2-0.5,2.6-0.6
	c0.4-0.1,0.8-0.3,1.2-0.4c0-0.3-0.1-0.7-0.3-0.9c-0.3-0.2-0.6-0.3-0.9-0.3c-0.5,0-0.9,0.1-1.3,0.3C40.7,90.3,40.5,90.6,40.4,90.9z
	 M43.5,92.7c-0.5,0.2-1,0.3-1.5,0.5c-0.5,0.1-1,0.3-1.4,0.6c-0.2,0.2-0.3,0.4-0.3,0.6c0,0.3,0.1,0.5,0.3,0.7
	c0.2,0.2,0.5,0.3,0.9,0.3c0.4,0,0.8-0.1,1.1-0.3c0.3-0.2,0.6-0.4,0.7-0.7c0.2-0.3,0.2-0.7,0.2-1.1L43.5,92.7z M55.9,93.5l3.3,0.4
	c-0.2,0.7-0.5,1.3-0.9,1.8c-0.4,0.5-1,0.9-1.6,1.2c-0.8,0.3-1.6,0.5-2.5,0.4c-0.8,0-1.6-0.1-2.4-0.3c-0.6-0.2-1.2-0.5-1.7-0.9
	c-0.5-0.4-0.8-0.9-1.1-1.4c-0.3-0.7-0.4-1.4-0.4-2.2c0-0.8,0.1-1.6,0.5-2.4c0.2-0.5,0.6-0.9,1-1.2c0.4-0.3,0.8-0.6,1.3-0.8
	c0.8-0.3,1.7-0.5,2.6-0.4c1.2-0.1,2.4,0.2,3.4,0.8c0.8,0.6,1.4,1.4,1.7,2.4l-3.3,0.4c-0.1-0.4-0.3-0.7-0.6-0.9
	c-0.3-0.2-0.7-0.3-1.1-0.3c-0.5,0-1.1,0.2-1.4,0.6c-0.4,0.5-0.6,1.2-0.5,1.9c0,0.6,0.1,1.2,0.5,1.7c0.3,0.4,0.8,0.6,1.4,0.6
	c0.4,0,0.8-0.1,1.2-0.4C55.5,94.3,55.8,93.9,55.9,93.5L55.9,93.5z M60.6,84.4h3.5v4.7c0.4-0.4,0.9-0.8,1.4-1.1
	c0.5-0.2,1.1-0.3,1.7-0.3c0.8,0,1.7,0.3,2.3,0.9c0.6,0.8,0.9,1.7,0.8,2.7v5.8h-3.5V92c0-0.4-0.1-0.9-0.3-1.2
	c-0.2-0.2-0.6-0.4-0.9-0.4c-0.4,0-0.8,0.2-1,0.5c-0.3,0.5-0.5,1.1-0.4,1.7v4.4h-3.5L60.6,84.4z M82.1,97.1h-3.3v-1.5
	c-0.4,0.5-0.9,1-1.5,1.3c-0.6,0.3-1.2,0.4-1.8,0.4c-0.8,0-1.7-0.3-2.3-0.9c-0.6-0.8-0.9-1.7-0.8-2.7v-5.9h3.5V93
	c0,0.4,0.1,0.9,0.3,1.2c0.2,0.2,0.6,0.4,0.9,0.4c0.4,0,0.8-0.2,1-0.5c0.3-0.5,0.5-1.1,0.4-1.7v-4.4h3.5L82.1,97.1z M84.2,87.9h3.3
	v1.5c0.4-0.5,0.9-1,1.5-1.3c0.6-0.3,1.2-0.4,1.8-0.4c0.9,0,1.7,0.3,2.3,0.9c0.6,0.8,0.9,1.7,0.8,2.7v5.8h-3.5V92
	c0-0.4-0.1-0.9-0.3-1.2c-0.2-0.2-0.6-0.4-0.9-0.4c-0.4,0-0.8,0.2-1,0.5c-0.3,0.5-0.5,1.1-0.4,1.7v4.4h-3.5V87.9z M102.4,87.9h3.3
	v8.7l0,0.4c0,0.6-0.1,1.1-0.4,1.6c-0.2,0.5-0.6,0.9-1,1.3c-0.5,0.3-1,0.6-1.6,0.7c-0.7,0.2-1.4,0.2-2.2,0.2
	c-1.3,0.1-2.7-0.2-3.8-0.8c-0.7-0.5-1.1-1.4-1-2.2c0-0.1,0-0.3,0-0.5l3.4,0.4c0.1,0.3,0.2,0.5,0.4,0.7c0.3,0.2,0.6,0.3,1,0.3
	c0.4,0,0.8-0.1,1.1-0.4c0.3-0.4,0.4-0.9,0.4-1.4v-1.4c-0.3,0.4-0.6,0.7-1,0.9c-0.5,0.3-1.1,0.4-1.8,0.4c-1.2,0-2.3-0.6-3-1.6
	c-0.6-0.9-0.9-2-0.8-3c-0.1-1.2,0.3-2.4,1-3.3c0.7-0.8,1.7-1.2,2.7-1.1c0.6,0,1.2,0.1,1.8,0.4c0.5,0.3,1,0.7,1.3,1.2L102.4,87.9z
	 M99.1,92.4c0,0.5,0.1,1.1,0.4,1.5c0.3,0.3,0.7,0.5,1.1,0.5c0.4,0,0.8-0.2,1.1-0.5c0.3-0.4,0.5-1,0.4-1.5c0-0.6-0.1-1.1-0.5-1.5
	c-0.3-0.3-0.7-0.5-1.1-0.5c-0.4,0-0.8,0.2-1.1,0.5C99.2,91.2,99.1,91.8,99.1,92.4z M118.1,93.4H111c0,0.5,0.2,0.9,0.5,1.3
	c0.3,0.4,0.8,0.6,1.3,0.6c0.3,0,0.7-0.1,1-0.3c0.2-0.2,0.4-0.4,0.6-0.6l3.5,0.3c-0.4,0.8-1.1,1.5-1.9,2c-1,0.5-2.1,0.7-3.2,0.6
	c-1,0-2-0.1-2.9-0.5c-0.7-0.4-1.3-0.9-1.7-1.6c-0.5-0.8-0.7-1.7-0.7-2.6c-0.1-1.3,0.4-2.6,1.4-3.5c1-0.9,2.4-1.4,3.8-1.3
	c1.1,0,2.1,0.2,3.1,0.6c0.7,0.4,1.4,1,1.7,1.7c0.4,0.9,0.6,1.9,0.6,3L118.1,93.4z M114.5,91.7c0-0.5-0.2-1.1-0.6-1.5
	c-0.3-0.3-0.7-0.5-1.2-0.4c-0.5,0-1,0.2-1.3,0.7c-0.2,0.4-0.4,0.8-0.4,1.2H114.5z M119.7,87.9h3.3v1.5c0.4-0.5,0.9-1,1.5-1.3
	c0.6-0.3,1.2-0.4,1.8-0.4c0.9,0,1.7,0.3,2.3,0.9c0.6,0.8,0.9,1.7,0.8,2.7v5.8h-3.5V92c0-0.4-0.1-0.9-0.3-1.2
	c-0.2-0.2-0.6-0.4-0.9-0.4c-0.4,0-0.8,0.2-1,0.5c-0.3,0.5-0.5,1.1-0.4,1.7v4.4h-3.5L119.7,87.9z"/>
<g id="house" transform="translate(27.092)">
	<rect id="Rectangle_3" x="0" y="38.5" class="st0" width="75.2" height="7.8"/>
	<rect id="Rectangle_4" x="66.7" y="23.5" class="st0" width="8.5" height="22.9"/>
	<rect id="Rectangle_5" x="0" y="23.5" class="st0" width="8.5" height="22.9"/>
	<path id="Path_3" class="st0" d="M19.8,11.1l4.3,6.9L4.4,30.3l-4.2-7L19.8,11.1z"/>
	<path id="Path_4" class="st0" d="M55.3,11.1L51,18l19.7,12.3l4.2-7L55.3,11.1z"/>
	<path id="Path_5" class="st0" d="M37.6,0L33.2,7l23.2,14.5l4.2-7L37.6,0z"/>
	<path id="Path_6" class="st0" d="M37.6,0l4.3,6.9L22.6,19l-4.2-7L37.6,0z"/>
</g>
</svg>
