<svg width="240" height="240" viewBox="0 0 240 240" fill="none" xmlns="http://www.w3.org/2000/svg">
<rect width="240" height="240" fill="#EDF0F3"/>
<rect x="40" y="40" width="160" height="160" rx="4" fill="#E0E3E6"/>
<rect x="41" y="81" width="158" height="78" rx="3" fill="white" stroke="#D0D4D9" stroke-width="2"/>
<rect x="97" y="98" width="45.8542" height="8" rx="2" fill="#838D95"/>
<rect x="84" y="114" width="71" height="8" rx="2" fill="#C1C9D5"/>
<rect width="40" height="12" rx="1" transform="matrix(1 0 0 -1 77 142)" fill="#0E0F11"/>
<rect width="24" height="2" rx="0.5" transform="matrix(1 0 0 -1 85 137)" fill="white"/>
<rect width="40" height="12" rx="1" transform="matrix(1 0 0 -1 121 142)" fill="#EDF0F3"/>
<rect width="24" height="2" rx="0.5" transform="matrix(1 0 0 -1 129 137)" fill="#566475"/>
</svg>
