<svg width="26" height="26" viewBox="0 0 26 26" fill="none" xmlns="http://www.w3.org/2000/svg">
<path d="M12.9989 8.83472C10.7052 8.83472 8.8333 10.7066 8.8333 13.0003C8.8333 15.2941 10.7052 17.166 12.9989 17.166C15.2927 17.166 17.1646 15.2941 17.1646 13.0003C17.1646 10.7066 15.2927 8.83472 12.9989 8.83472ZM25.4927 13.0003C25.4927 11.2753 25.5083 9.56597 25.4114 7.84409C25.3146 5.84409 24.8583 4.06909 23.3958 2.60659C21.9302 1.14097 20.1583 0.687844 18.1583 0.590969C16.4333 0.494094 14.7239 0.509719 13.0021 0.509719C11.2771 0.509719 9.56768 0.494094 7.8458 0.590969C5.8458 0.687844 4.0708 1.14409 2.6083 2.60659C1.14268 4.07222 0.689552 5.84409 0.592678 7.84409C0.495803 9.56909 0.511428 11.2785 0.511428 13.0003C0.511428 14.7222 0.495803 16.4347 0.592678 18.1566C0.689552 20.1566 1.1458 21.9316 2.6083 23.3941C4.07393 24.8597 5.8458 25.3128 7.8458 25.4097C9.5708 25.5066 11.2802 25.491 13.0021 25.491C14.7271 25.491 16.4364 25.5066 18.1583 25.4097C20.1583 25.3128 21.9333 24.8566 23.3958 23.3941C24.8614 21.9285 25.3146 20.1566 25.4114 18.1566C25.5114 16.4347 25.4927 14.7253 25.4927 13.0003V13.0003ZM12.9989 19.4097C9.45205 19.4097 6.58955 16.5472 6.58955 13.0003C6.58955 9.45347 9.45205 6.59097 12.9989 6.59097C16.5458 6.59097 19.4083 9.45347 19.4083 13.0003C19.4083 16.5472 16.5458 19.4097 12.9989 19.4097ZM19.6708 7.82534C18.8427 7.82534 18.1739 7.15659 18.1739 6.32847C18.1739 5.50034 18.8427 4.83159 19.6708 4.83159C20.4989 4.83159 21.1677 5.50034 21.1677 6.32847C21.1679 6.52511 21.1294 6.71987 21.0542 6.90159C20.9791 7.08331 20.8688 7.24842 20.7298 7.38747C20.5908 7.52652 20.4256 7.63677 20.2439 7.7119C20.0622 7.78704 19.8674 7.82559 19.6708 7.82534V7.82534Z" fill="#FF7700"/>
</svg>
