<svg width="240" height="240" viewBox="0 0 240 240" fill="none" xmlns="http://www.w3.org/2000/svg">
<rect width="240" height="240" fill="#EDF0F3"/>
<rect x="40" y="40" width="160" height="160" rx="4" fill="#E0E3E6"/>
<rect x="41" y="81" width="158" height="78" rx="3" fill="white" stroke="#D0D4D9" stroke-width="2"/>
<rect x="102.5" y="110" width="35" height="4" rx="2" fill="#838D95"/>
<rect x="54.5" y="110" width="35" height="4" rx="2" fill="#838D95"/>
<rect x="150.5" y="110" width="35" height="4" rx="2" fill="#838D95"/>
<rect x="100" y="118" width="40" height="4" rx="2" fill="#C1C9D5"/>
<rect x="52" y="118" width="40" height="4" rx="2" fill="#C1C9D5"/>
<rect x="148" y="118" width="40" height="4" rx="2" fill="#C1C9D5"/>
<rect x="100" y="126" width="40" height="4" rx="2" fill="#C1C9D5"/>
<rect x="52" y="126" width="40" height="4" rx="2" fill="#C1C9D5"/>
<rect x="148" y="126" width="40" height="4" rx="2" fill="#C1C9D5"/>
<rect x="100" y="134" width="40" height="4" rx="2" fill="#C1C9D5"/>
<rect x="52" y="134" width="40" height="4" rx="2" fill="#C1C9D5"/>
<rect x="148" y="134" width="40" height="4" rx="2" fill="#C1C9D5"/>
<rect width="40" height="8" rx="1" transform="matrix(1 0 0 -1 100 151)" fill="#0E0F11"/>
<rect width="24" height="1.33333" rx="0.5" transform="matrix(1 0 0 -1 108 147.667)" fill="white"/>
<rect width="40" height="8" rx="1" transform="matrix(1 0 0 -1 52 151)" fill="#EDF0F3"/>
<rect width="24" height="1.33333" rx="0.5" transform="matrix(1 0 0 -1 60 147.667)" fill="#838D95"/>
<rect width="40" height="8" rx="1" transform="matrix(1 0 0 -1 148 151)" fill="#EDF0F3"/>
<rect width="24" height="1.33333" rx="0.5" transform="matrix(1 0 0 -1 156 147.667)" fill="#838D95"/>
<circle cx="120" cy="96" r="8" fill="#0E0F11"/>
<path d="M119.667 101H120.333V100.042C122.041 99.9172 123 98.8516 123 97.5109C123 95.8609 121.52 95.3281 120.659 95.0875L120.333 94.993V91.9379C121.195 92.0281 121.821 92.518 121.911 93.3H122.886C122.846 92.0453 121.805 91.0914 120.333 90.9883V90H119.667V91.0012C118.272 91.1516 117.228 92.0883 117.228 93.4375C117.228 94.6234 118.041 95.3281 119.341 95.7234L119.667 95.8223V99.075C118.813 98.9805 118.114 98.5164 118.041 97.6313H117C117.093 98.9848 118.069 99.9301 119.667 100.042V101ZM120.333 99.075V96.0242L120.366 96.0328C121.244 96.2906 122.024 96.6172 122.024 97.4938C122.024 98.3574 121.317 98.959 120.333 99.075ZM119.667 94.8039C119.049 94.6191 118.203 94.2582 118.203 93.3859C118.203 92.6426 118.772 92.0754 119.667 91.9508V94.8039Z" fill="white"/>
<circle cx="72" cy="96" r="8" fill="#838D95"/>
<path d="M71.6667 101H72.3333V100.042C74.0407 99.9172 75 98.8516 75 97.5109C75 95.8609 73.5203 95.3281 72.6585 95.0875L72.3333 94.993V91.9379C73.1951 92.0281 73.8211 92.518 73.9106 93.3H74.8862C74.8455 92.0453 73.8049 91.0914 72.3333 90.9883V90H71.6667V91.0012C70.2724 91.1516 69.2276 92.0883 69.2276 93.4375C69.2276 94.6234 70.0407 95.3281 71.3415 95.7234L71.6667 95.8223V99.075C70.813 98.9805 70.1138 98.5164 70.0407 97.6313H69C69.0935 98.9848 70.0691 99.9301 71.6667 100.042V101ZM72.3333 99.075V96.0242L72.3659 96.0328C73.2439 96.2906 74.0244 96.6172 74.0244 97.4938C74.0244 98.3574 73.3171 98.959 72.3333 99.075ZM71.6667 94.8039C71.0488 94.6191 70.2033 94.2582 70.2033 93.3859C70.2033 92.6426 70.7724 92.0754 71.6667 91.9508V94.8039Z" fill="white"/>
<circle cx="168" cy="96" r="8" fill="#838D95"/>
<path d="M167.667 101H168.333V100.042C170.041 99.9172 171 98.8516 171 97.5109C171 95.8609 169.52 95.3281 168.659 95.0875L168.333 94.993V91.9379C169.195 92.0281 169.821 92.518 169.911 93.3H170.886C170.846 92.0453 169.805 91.0914 168.333 90.9883V90H167.667V91.0012C166.272 91.1516 165.228 92.0883 165.228 93.4375C165.228 94.6234 166.041 95.3281 167.341 95.7234L167.667 95.8223V99.075C166.813 98.9805 166.114 98.5164 166.041 97.6313H165C165.093 98.9848 166.069 99.9301 167.667 100.042V101ZM168.333 99.075V96.0242L168.366 96.0328C169.244 96.2906 170.024 96.6172 170.024 97.4938C170.024 98.3574 169.317 98.959 168.333 99.075ZM167.667 94.8039C167.049 94.6191 166.203 94.2582 166.203 93.3859C166.203 92.6426 166.772 92.0754 167.667 91.9508V94.8039Z" fill="white"/>
</svg>
