<?xml version="1.0" encoding="utf-8"?>
<!-- Generator: Adobe Illustrator 25.4.1, SVG Export Plug-In . SVG Version: 6.00 Build 0)  -->
<svg version="1.1" id="Ebene_1" xmlns="http://www.w3.org/2000/svg" xmlns:xlink="http://www.w3.org/1999/xlink" x="0px" y="0px"
	 viewBox="0 0 1208.2 327.9" style="enable-background:new 0 0 1208.2 327.9;" xml:space="preserve">
<style type="text/css">
	.st0{fill:#F1FDFD;}
</style>
<g id="Ebene_2_00000004526888381032755300000000905245359357626288_">
	<g id="Ebene_1-2">
		<g id="Logo">
			<path id="Pfad_2" class="st0" d="M68.8,66.6h32.9v134.7H68.8V66.6z M68,0h34.6v35.7H68.1L68,0z M194.6,154.4l-34.8,46.8h-37.7
				l53.2-68.7l-50-66h38.8l31.4,44.5L260,25.9h38.9L215,132.4l52.8,68.8h-38.5L194.6,154.4z"/>
			<path id="Pfad_1" class="st0" d="M383.4,103.7c-2.6,13.4-5.7,26.4-9.2,39.1L358,201.8h-32.4L278.5,67.1h34.8l17.4,56.4
				c4,13.1,7.5,25.7,10.6,37.9h0.5c2.6-11.9,5.7-24.5,9.3-37.9l15.4-56.4h34.7l15.1,56.4c3.2,11.9,6.3,24.6,9.3,37.9h0.6
				c3.1-12.5,6.7-25.2,10.6-37.9l17.4-56.4h34.7l-47.1,134.7h-32.4l-16.3-59.1c-3.7-13.2-6.8-26.3-9.2-39.1L383.4,103.7z
				 M591.7,134.6c0.1-6.4-0.7-12.8-2.5-18.9c-1.4-5-3.8-9.7-7-13.8c-2.8-3.6-6.5-6.5-10.7-8.3c-4.3-1.9-8.9-2.8-13.6-2.8
				c-4.6,0-9.2,0.9-13.4,2.8c-4.2,1.9-7.8,4.7-10.6,8.3c-3.1,4.1-5.5,8.8-6.9,13.8c-1.8,6.1-2.6,12.5-2.5,18.9
				c-0.1,6.4,0.7,12.8,2.5,18.9c1.4,5,3.8,9.6,7,13.7c2.9,3.6,6.5,6.4,10.7,8.3c4.3,1.9,8.9,2.9,13.5,2.8c4.6,0.1,9.3-0.9,13.5-2.8
				c4.1-1.9,7.7-4.8,10.6-8.3c3.2-4.1,5.6-8.7,7-13.7C591,147.3,591.9,140.9,591.7,134.6L591.7,134.6z M625.7,134.6
				c0.1,9.8-1.5,19.6-4.7,28.9c-2.9,8.3-7.5,15.9-13.5,22.4c-6,6.3-13.3,11.2-21.3,14.4c-8.9,3.5-18.4,5.2-27.9,5.1
				c-9.7,0.2-19.4-1.6-28.4-5.1c-8.1-3.2-15.4-8.1-21.3-14.4c-6-6.4-10.6-14.1-13.4-22.4c-3.2-9.3-4.8-19.1-4.6-28.9
				c-0.1-9.8,1.5-19.6,4.7-28.9c2.9-8.3,7.6-15.9,13.6-22.4c6-6.3,13.3-11.2,21.3-14.4c8.9-3.5,18.4-5.2,28-5.1
				c9.7-0.2,19.4,1.6,28.4,5.1c8.1,3.2,15.3,8.1,21.3,14.4c6,6.4,10.6,14.1,13.4,22.4C624.4,114.9,625.9,124.7,625.7,134.6
				L625.7,134.6z M726,93.3h-2.8c-9.1-0.2-18.1,1.4-26.6,4.5c-7.2,2.7-13.4,7.5-17.7,13.8v90.2H646V67.1h27.2l3.1,18.8h0.6
				c3.8-6.8,9.3-12.4,16-16.2c7.5-4.1,16-6.1,24.5-5.9c2.9,0,5.8,0.2,8.6,0.6L726,93.3z M746.9,0.6h32.9v121.2h0.7l51.3-54.6h40.7
				l-59.1,63.2l59.5,71.4H833l-52.7-62.7h-0.6v62.7h-32.9V0.6z"/>
		</g>
		<rect y="0.5" class="st0" width="34" height="307"/>
		<path class="st0" d="M86,307.1h-9.3v-70.8H86V307.1z"/>
		<path class="st0" d="M150.5,244h-22.7v63.1h-9.3V244H95.8v-7.6h54.7V244z"/>
		<path class="st0" d="M233.5,236.4v48.1c0,6.7-2.1,12.1-6.3,16.4s-9.8,6.6-16.9,7.1l-2.5,0.1c-7.7,0-13.9-2.1-18.5-6.3
			c-4.6-4.2-6.9-9.9-7-17.2v-48.2h9.2v47.9c0,5.1,1.4,9.1,4.2,11.9c2.8,2.8,6.8,4.2,12,4.2c5.3,0,9.3-1.4,12.1-4.2
			c2.8-2.8,4.2-6.8,4.2-11.9v-48L233.5,236.4z"/>
		<path class="st0" d="M255.4,254.6l0.3,6.6c3.7-4.9,9.6-7.7,15.7-7.6c11.1,0,16.7,6.3,16.8,18.8v34.7h-9v-34.8
			c0-3.8-0.9-6.6-2.6-8.4s-4.4-2.7-8-2.7c-2.7-0.1-5.4,0.8-7.7,2.3c-2.2,1.6-4,3.7-5.1,6.1v37.5h-9v-52.6H255.4z"/>
		<path class="st0" d="M314,241.8v12.7h9.8v6.9H314v32.6c-0.1,1.7,0.3,3.4,1.3,4.7c0.9,1.1,2.4,1.6,4.5,1.6c1.4-0.1,2.9-0.2,4.3-0.6
			v7.2c-2.2,0.6-4.6,1-6.9,1c-4,0-7-1.2-9.1-3.6s-3.1-5.9-3.1-10.4v-32.6h-9.6v-6.9h9.6v-12.7H314z"/>
		<path class="st0" d="M356.1,308.1c-7.1,0-12.9-2.3-17.4-7s-6.7-10.9-6.7-18.8v-1.6c-0.1-4.8,0.9-9.6,3-14c1.8-3.9,4.7-7.3,8.4-9.6
			c3.5-2.3,7.5-3.5,11.6-3.5c6.8,0,12.2,2.3,15.9,6.8c3.8,4.5,5.7,11,5.7,19.3v3.7H341c0.1,5.2,1.6,9.4,4.5,12.6
			c2.8,3.1,6.8,4.9,11,4.8c2.8,0.1,5.6-0.6,8.1-2c2.2-1.3,4.2-3.1,5.8-5.1l5.5,4.4C371.5,304.8,364.9,308.1,356.1,308.1z M355,261
			c-3.5-0.1-6.8,1.4-9.1,4c-2.5,2.7-4,6.4-4.6,11.1h26.3v-0.7c-0.3-4.6-1.5-8.1-3.7-10.6C361.7,262.3,358.4,260.9,355,261z"/>
		<path class="st0" d="M412.4,262.6c-1.5-0.2-2.9-0.3-4.4-0.3c-5.9,0-9.9,2.5-12,7.5v37.3h-9v-52.6h8.8l0.1,6.1
			c2.6-4.5,7.4-7.1,12.5-7c1.4-0.1,2.7,0.2,4,0.7L412.4,262.6z"/>
		<path class="st0" d="M429.2,254.6l0.3,6.6c3.7-4.9,9.6-7.7,15.8-7.6c11.1,0,16.7,6.3,16.8,18.8v34.7h-9v-34.8
			c0-3.8-0.9-6.6-2.6-8.4c-1.7-1.8-4.4-2.7-7.9-2.7c-2.7-0.1-5.4,0.8-7.7,2.3c-2.2,1.6-4,3.7-5.1,6.1v37.5h-9v-52.6H429.2z"/>
		<path class="st0" d="M497.4,308.1c-7.1,0-12.9-2.3-17.4-7s-6.7-10.9-6.7-18.8v-1.6c-0.1-4.8,0.9-9.6,3-14c1.8-3.9,4.7-7.3,8.4-9.6
			c3.5-2.3,7.5-3.5,11.6-3.5c6.8,0,12.1,2.3,15.9,6.8c3.8,4.5,5.7,11,5.7,19.3v3.7h-35.6c0.1,5.2,1.6,9.4,4.5,12.6
			c2.8,3.1,6.8,4.9,11,4.8c2.8,0.1,5.6-0.6,8.1-2c2.2-1.3,4.2-3.1,5.8-5.1l5.5,4.3C512.8,304.7,506.2,308.1,497.4,308.1z M496.3,261
			c-3.5-0.1-6.8,1.4-9.1,4c-2.5,2.7-4,6.4-4.6,11.1h26.3v-0.7c-0.3-4.6-1.5-8.1-3.7-10.6C503,262.2,499.7,260.9,496.3,261z"/>
		<path class="st0" d="M537.3,260.9c3.7-4.8,9.5-7.5,15.5-7.3c11.1,0,16.7,6.3,16.8,18.8v34.7h-9v-34.8c0-3.8-0.9-6.6-2.6-8.4
			c-1.7-1.8-4.4-2.7-7.9-2.7c-2.7-0.1-5.4,0.8-7.7,2.3c-2.2,1.6-4,3.7-5.2,6.1v37.5h-9v-74.6h9L537.3,260.9z"/>
		<path class="st0" d="M591.6,254.6l0.2,5.8c3.9-4.5,9.1-6.8,15.6-6.8c7.3,0,12.3,2.8,15,8.5c1.8-2.5,4.1-4.6,6.8-6.1
			c3.1-1.6,6.5-2.4,9.9-2.3c11.5,0,17.4,6.1,17.6,18.3v35.2h-9v-34.7c0-3.8-0.9-6.6-2.6-8.4c-1.7-1.9-4.6-2.8-8.7-2.8
			c-3.1-0.1-6,1-8.3,3c-2.2,2.1-3.6,4.9-3.8,8v34.9h-9v-34.4c0-7.6-3.7-11.5-11.2-11.5c-5.9,0-9.9,2.5-12.1,7.5v38.4h-9v-52.6H591.6
			z"/>
		<path class="st0" d="M692.1,308.1c-7.1,0-12.9-2.3-17.4-7s-6.7-10.9-6.8-18.8v-1.6c-0.1-4.8,0.9-9.6,3-14c1.8-3.9,4.7-7.3,8.4-9.6
			c3.5-2.3,7.5-3.5,11.6-3.5c6.8,0,12.1,2.3,15.9,6.8c3.8,4.5,5.7,11,5.7,19.3v3.7H677c0.1,5.2,1.6,9.4,4.5,12.6
			c2.8,3.1,6.8,4.9,11.1,4.8c2.8,0.1,5.6-0.6,8.1-2c2.2-1.3,4.2-3.1,5.8-5.1l5.5,4.4C707.6,304.8,700.9,308.1,692.1,308.1z M691,261
			c-3.5-0.1-6.8,1.4-9.1,4c-2.5,2.7-4,6.4-4.6,11.1h26.3v-0.7c-0.3-4.6-1.5-8.1-3.7-10.6C697.7,262.3,694.4,260.9,691,261z"/>
		<path class="st0" d="M731.5,254.6l0.3,6.6c3.7-4.9,9.6-7.7,15.8-7.6c11.1,0,16.7,6.3,16.8,18.8v34.7h-9v-34.8
			c0-3.8-0.9-6.6-2.6-8.4c-1.7-1.8-4.4-2.7-7.9-2.7c-2.7-0.1-5.4,0.8-7.7,2.3c-2.2,1.6-4,3.7-5.2,6.1v37.5h-9v-52.6H731.5z"/>
		<path class="st0" d="M808.6,293.2c0.1-2.2-0.9-4.4-2.7-5.7c-1.8-1.3-5-2.5-9.6-3.5c-3.7-0.7-7.4-1.9-10.8-3.5
			c-2.4-1.1-4.4-2.8-5.9-4.9c-1.3-2-2-4.3-1.9-6.7c0-4.3,2-8.4,5.4-10.9c3.6-3,8.3-4.5,14-4.5c6,0,10.8,1.5,14.5,4.6
			c3.6,2.8,5.7,7.2,5.6,11.8h-9c0-2.5-1.2-4.8-3.1-6.4c-2.2-1.8-5.1-2.8-7.9-2.6c-3.3,0-5.8,0.7-7.7,2.1c-1.8,1.3-2.8,3.4-2.8,5.6
			c-0.1,2,0.9,3.9,2.6,4.9c1.7,1.1,4.8,2.2,9.3,3.2c3.8,0.8,7.4,2,10.9,3.6c2.5,1.1,4.6,2.8,6.2,5c1.4,2.1,2.1,4.6,2,7.2
			c0.1,4.5-2,8.7-5.6,11.3c-3.8,2.8-8.6,4.3-14.6,4.2c-3.8,0.1-7.7-0.7-11.2-2.2c-3.1-1.3-5.7-3.5-7.6-6.2c-1.8-2.5-2.8-5.6-2.8-8.7
			h9c0.1,2.8,1.4,5.4,3.6,7.2c2.6,1.9,5.7,2.8,8.9,2.6c2.9,0.1,5.7-0.6,8.2-2.1C807.4,297.5,808.6,295.5,808.6,293.2z"/>
		<path class="st0" d="M873.8,281.5c0,8-1.8,14.5-5.5,19.4c-3.4,4.7-9,7.5-14.9,7.3c-6.7,0-11.8-2.3-15.4-7l-0.4,6.1h-8.3v-74.7h9
			v27.8c3.6-4.5,8.6-6.8,15-6.8c6.4,0,11.4,2.4,15,7.2c3.6,4.8,5.5,11.4,5.5,19.8L873.8,281.5z M864.8,280.5
			c0-6.1-1.2-10.9-3.5-14.2c-2.3-3.3-6.2-5.2-10.2-5c-5.9,0-10.2,2.8-12.8,8.3v22.7c2.8,5.5,7.1,8.3,12.9,8.3c4,0.2,7.8-1.7,10.1-5
			C863.6,292.2,864.8,287.1,864.8,280.5L864.8,280.5z"/>
		<path class="st0" d="M906.9,308.1c-7.1,0-12.9-2.3-17.4-7c-4.5-4.7-6.7-10.9-6.7-18.8v-1.6c-0.1-4.8,0.9-9.6,3-14
			c1.8-3.9,4.7-7.3,8.4-9.6c3.5-2.3,7.5-3.5,11.6-3.5c6.8,0,12.1,2.3,15.9,6.8c3.8,4.5,5.7,11,5.7,19.3v3.7h-35.6
			c0.1,5.2,1.6,9.4,4.5,12.6c2.8,3.1,6.8,4.9,11.1,4.8c2.8,0.1,5.6-0.6,8.1-2c2.2-1.3,4.2-3.1,5.8-5.1l5.5,4.3
			C922.3,304.7,915.7,308.1,906.9,308.1z M905.8,261c-3.5-0.1-6.8,1.4-9.1,4c-2.5,2.7-4,6.4-4.6,11.1h26.3v-0.7
			c-0.3-4.6-1.5-8.1-3.7-10.6C912.5,262.3,909.2,260.9,905.8,261z"/>
		<path class="st0" d="M963.2,262.6c-1.5-0.2-2.9-0.4-4.4-0.3c-5.9,0-9.9,2.5-12,7.5v37.3h-9v-52.6h8.7l0.2,6.1
			c2.6-4.5,7.4-7.2,12.5-7c1.4-0.1,2.7,0.2,4,0.7L963.2,262.6z"/>
		<path class="st0" d="M1002,307.1c-0.7-1.8-1.1-3.6-1.3-5.5c-3.8,4.2-9.3,6.6-15,6.5c-5.2,0-9.4-1.5-12.8-4.4
			c-3.3-2.8-5.1-6.9-5-11.2c0-5.5,2.1-9.7,6.2-12.8s10-4.5,17.6-4.5h8.8v-4.1c0.1-2.8-0.9-5.5-2.8-7.5c-1.9-1.9-4.6-2.8-8.3-2.8
			c-2.9-0.1-5.7,0.8-8.1,2.4c-2,1.3-3.2,3.5-3.2,5.9h-9c0.1-2.8,1-5.5,2.8-7.6c2-2.6,4.6-4.6,7.6-5.8c3.3-1.5,6.9-2.2,10.5-2.1
			c6.1,0,10.8,1.5,14.2,4.5c3.4,3,5.2,7.2,5.3,12.5v24.2c0,4.8,0.6,8.7,1.8,11.5v0.8L1002,307.1z M987.1,300.3c2.8,0,5.6-0.8,8-2.2
			c2.4-1.3,4.3-3.3,5.5-5.7v-10.8h-7c-11,0-16.5,3.2-16.5,9.7c-0.1,2.5,0.9,5,2.8,6.6C981.9,299.6,984.5,300.4,987.1,300.3z"/>
		<path class="st0" d="M1035.9,241.8v12.7h9.8v6.9h-9.8v32.6c-0.1,1.7,0.3,3.4,1.3,4.7c0.9,1.1,2.4,1.6,4.5,1.6
			c1.4-0.1,2.9-0.2,4.3-0.6v7.2c-2.2,0.6-4.6,1-6.9,1c-4,0-7-1.2-9.1-3.6c-2.1-2.4-3.1-5.9-3.1-10.4v-32.6h-9.6v-6.9h9.6v-12.7
			H1035.9z"/>
		<path class="st0" d="M1088.7,302c-3.5,4.1-8.6,6.2-15.4,6.2c-5.6,0-9.9-1.6-12.8-4.9c-2.9-3.3-4.4-8.1-4.4-14.5v-34.2h9v34
			c0,8,3.2,12,9.7,12c6.9,0,11.4-2.6,13.7-7.7v-38.3h9v52.6h-8.6L1088.7,302z"/>
		<path class="st0" d="M1119.6,254.6l0.3,6.6c3.7-4.9,9.6-7.7,15.7-7.6c11.1,0,16.7,6.3,16.8,18.8v34.7h-9v-34.8
			c0-3.8-0.9-6.6-2.6-8.4c-1.7-1.8-4.4-2.7-7.9-2.7c-2.7-0.1-5.4,0.8-7.7,2.3c-2.2,1.6-4,3.7-5.2,6.1v37.5h-9v-52.6H1119.6z"/>
		<path class="st0" d="M1163.8,280.4c0-8.2,1.9-14.7,5.7-19.6c3.5-4.7,9.2-7.4,15.1-7.3c6.4,0,11.4,2.3,15,6.8l0.4-5.8h8.2v51.3
			c0,6.8-2,12.2-6,16.1s-9.4,5.9-16.2,5.9c-3.8,0-7.6-0.8-11.1-2.4c-3.3-1.4-6.2-3.7-8.3-6.7l4.7-5.4c3.8,4.8,8.6,7.1,14.1,7.1
			c4.4,0,7.8-1.2,10.2-3.7c2.4-2.5,3.7-5.9,3.7-10.4v-4.5c-3.6,4.2-8.5,6.2-14.7,6.2c-5.9,0.1-11.5-2.7-14.9-7.4
			C1165.7,295.7,1163.8,289,1163.8,280.4z M1172.8,281.4c0,5.9,1.2,10.6,3.6,14c2.3,3.3,6.2,5.2,10.2,5.1c5.7,0,9.8-2.6,12.5-7.7
			v-24c-2.8-5-6.9-7.5-12.4-7.5c-4.1-0.1-7.9,1.8-10.3,5.1C1174.1,269.7,1172.9,274.8,1172.8,281.4L1172.8,281.4z"/>
	</g>
</g>
</svg>
