<svg width="240" height="240" viewBox="0 0 240 240" fill="none" xmlns="http://www.w3.org/2000/svg">
<path d="M240 0H0V240H240V0Z" fill="#EDF0F3"/>
<path d="M196 40H44C41.7909 40 40 41.7909 40 44V196C40 198.209 41.7909 200 44 200H196C198.209 200 200 198.209 200 196V44C200 41.7909 198.209 40 196 40Z" fill="#E0E3E6"/>
<path d="M196 81H44C42.3431 81 41 82.3431 41 84V156C41 157.657 42.3431 159 44 159H196C197.657 159 199 157.657 199 156V84C199 82.3431 197.657 81 196 81Z" fill="white" stroke="#D0D4D9" stroke-width="2"/>
<path d="M186.241 100H147.759C147.34 100 147 100.34 147 100.759V139.241C147 139.66 147.34 140 147.759 140H186.241C186.66 140 187 139.66 187 139.241V100.759C187 100.34 186.66 100 186.241 100Z" fill="white" stroke="#E0E3E6" stroke-width="2"/>
<path d="M170.544 123.038H151.304C151.024 123.038 150.797 123.265 150.797 123.544V124.557C150.797 124.837 151.024 125.063 151.304 125.063H170.544C170.824 125.063 171.051 124.837 171.051 124.557V123.544C171.051 123.265 170.824 123.038 170.544 123.038Z" fill="#566475"/>
<path d="M182.696 128.101H151.304C151.024 128.101 150.797 128.328 150.797 128.608V129.62C150.797 129.9 151.024 130.127 151.304 130.127H182.696C182.976 130.127 183.202 129.9 183.202 129.62V128.608C183.202 128.328 182.976 128.101 182.696 128.101Z" fill="#C1C9D5"/>
<path d="M169.734 132.152H151.304C151.024 132.152 150.797 132.379 150.797 132.658V133.671C150.797 133.95 151.024 134.177 151.304 134.177H169.734C170.014 134.177 170.24 133.95 170.24 133.671V132.658C170.24 132.379 170.014 132.152 169.734 132.152Z" fill="#C1C9D5"/>
<path d="M182.696 103.797H151.304C151.024 103.797 150.797 104.024 150.797 104.304V119.494C150.797 119.773 151.024 120 151.304 120H182.696C182.976 120 183.202 119.773 183.202 119.494V104.304C183.202 104.024 182.976 103.797 182.696 103.797Z" fill="#E0E3E6"/>
<path d="M139.241 100H100.759C100.34 100 100 100.34 100 100.759V139.241C100 139.66 100.34 140 100.759 140H139.241C139.66 140 140 139.66 140 139.241V100.759C140 100.34 139.66 100 139.241 100Z" fill="white" stroke="#E0E3E6" stroke-width="2"/>
<path d="M123.544 123.038H104.304C104.024 123.038 103.797 123.265 103.797 123.544V124.557C103.797 124.837 104.024 125.063 104.304 125.063H123.544C123.824 125.063 124.051 124.837 124.051 124.557V123.544C124.051 123.265 123.824 123.038 123.544 123.038Z" fill="#566475"/>
<path d="M135.696 128.101H104.304C104.024 128.101 103.797 128.328 103.797 128.608V129.62C103.797 129.9 104.024 130.127 104.304 130.127H135.696C135.976 130.127 136.202 129.9 136.202 129.62V128.608C136.202 128.328 135.976 128.101 135.696 128.101Z" fill="#C1C9D5"/>
<path d="M122.734 132.152H104.304C104.024 132.152 103.797 132.379 103.797 132.658V133.671C103.797 133.95 104.024 134.177 104.304 134.177H122.734C123.014 134.177 123.24 133.95 123.24 133.671V132.658C123.24 132.379 123.014 132.152 122.734 132.152Z" fill="#C1C9D5"/>
<path d="M135.696 103.797H104.304C104.024 103.797 103.797 104.024 103.797 104.304V119.494C103.797 119.773 104.024 120 104.304 120H135.696C135.976 120 136.202 119.773 136.202 119.494V104.304C136.202 104.024 135.976 103.797 135.696 103.797Z" fill="#E0E3E6"/>
<path d="M92.2405 100H53.7595C53.34 100 53 100.34 53 100.759V139.241C53 139.66 53.34 140 53.7595 140H92.2405C92.66 140 93 139.66 93 139.241V100.759C93 100.34 92.66 100 92.2405 100Z" fill="white" stroke="#E0E3E6" stroke-width="2"/>
<path d="M76.5442 123.038H57.3037C57.0241 123.038 56.7974 123.265 56.7974 123.544V124.557C56.7974 124.837 57.0241 125.063 57.3037 125.063H76.5442C76.8238 125.063 77.0505 124.837 77.0505 124.557V123.544C77.0505 123.265 76.8238 123.038 76.5442 123.038Z" fill="#566475"/>
<path d="M88.6961 128.101H57.3037C57.0241 128.101 56.7974 128.328 56.7974 128.608V129.62C56.7974 129.9 57.0241 130.127 57.3037 130.127H88.6961C88.9757 130.127 89.2024 129.9 89.2024 129.62V128.608C89.2024 128.328 88.9757 128.101 88.6961 128.101Z" fill="#C1C9D5"/>
<path d="M75.7341 132.152H57.3037C57.0241 132.152 56.7974 132.379 56.7974 132.658V133.671C56.7974 133.95 57.0241 134.177 57.3037 134.177H75.7341C76.0137 134.177 76.2404 133.95 76.2404 133.671V132.658C76.2404 132.379 76.0137 132.152 75.7341 132.152Z" fill="#C1C9D5"/>
<path d="M88.6961 103.797H57.3037C57.0241 103.797 56.7974 104.024 56.7974 104.304V119.494C56.7974 119.773 57.0241 120 57.3037 120H88.6961C88.9757 120 89.2024 119.773 89.2024 119.494V104.304C89.2024 104.024 88.9757 103.797 88.6961 103.797Z" fill="#E0E3E6"/>
</svg>
