<svg xmlns="http://www.w3.org/2000/svg" width="512" height="512" viewBox="0 0 512 512">
  <path id="cookie" d="M276,254a20,20,0,1,1-20-20A20,20,0,0,1,276,254ZM416,0a20,20,0,1,0,20,20A20,20,0,0,0,416,0Zm66,81a20,20,0,1,0,20,20A20,20,0,0,0,482,81ZM356,291a20,20,0,1,0,20,20A20,20,0,0,0,356,291ZM136,196a20,20,0,1,0,20-20A20,20,0,0,0,136,196Zm20,95a20,20,0,1,0,20,20A20,20,0,0,0,156,291Zm100,63a20,20,0,1,0,20,20A20,20,0,0,0,256,354Zm64.23,131.172A73.467,73.467,0,0,1,372.2,463.461c.184,0,.367,0,.551,0a20,20,0,0,0,.117-40c-.223,0-.441,0-.664,0a113.7,113.7,0,0,0-80.43,33.594,50.3,50.3,0,0,1-71.555,0,113.71,113.71,0,0,0-80.43-33.594c-.324,0-.648,0-.973,0a50.295,50.295,0,0,1-50.285-50.594,113.692,113.692,0,0,0-33.59-81.094,50.291,50.291,0,0,1,0-71.551,113.715,113.715,0,0,0,33.59-81.094,50.3,50.3,0,0,1,50.594-50.6,113.821,113.821,0,0,0,81.094-33.59,49.909,49.909,0,0,1,28.422-14.418A101.12,101.12,0,0,0,248,52a97.987,97.987,0,0,0,28.137,69.109A95.824,95.824,0,0,0,345,150q1.576,0,3.164-.055a96.35,96.35,0,0,0,26.426,53.363C392.758,221.809,417.735,232,444.914,232a95.244,95.244,0,0,0,19.832-2.02,50.289,50.289,0,0,1-7.691,61.793,113.715,113.715,0,0,0-33.59,81.094,20,20,0,0,0,20,19.883h.125a20,20,0,0,0,19.879-20.117,73.458,73.458,0,0,1,21.707-52.4,90.261,90.261,0,0,0,1.2-127.215,20.058,20.058,0,0,0-21.836-4.574A52.9,52.9,0,0,1,444.914,192C411.356,192,387,167.777,387,134.4V128a20,20,0,0,0-5.859-14.145l-1-1a20,20,0,0,0-19.547-5.109A57.836,57.836,0,0,1,345,110c-31.43,0-57-26.02-57-58a55.407,55.407,0,0,1,4.277-21.859,20,20,0,0,0-13.32-27.188A90.4,90.4,0,0,0,191.77,26.828,73.466,73.466,0,0,1,139.8,48.539c-.141,0-.285,0-.43,0a90.3,90.3,0,0,0-90.832,90.832,73.458,73.458,0,0,1-21.707,52.4,90.3,90.3,0,0,0,0,128.461,73.458,73.458,0,0,1,21.707,52.4,90.293,90.293,0,0,0,90.277,90.832h.555a73.343,73.343,0,0,1,52.4,21.707,90.3,90.3,0,0,0,128.461,0Zm0,0" transform="translate(0)" fill="#34bcd1"/>
</svg>
